<svg width="1920" height="1080" viewBox="0 0 1920 1080" fill="none" xmlns="http://www.w3.org/2000/svg">
<g clip-path="url(#clip0_11_54)">
<rect width="1920" height="1080" fill="white"/>
<rect x="24.4603" y="-323.123" width="1138.47" height="1395.78" transform="rotate(12.3068 24.4603 -323.123)" fill="url(#paint0_linear_11_54)"/>
<path fill-rule="evenodd" clip-rule="evenodd" d="M160.702 56.6328H84.0476V141.635C84.0476 179.232 111.774 210.29 146.024 213.559V125.288C146.024 122.019 149.286 120.384 152.548 120.384H160.702V112.211C157.44 112.211 154.179 108.942 150.917 107.307C146.024 102.403 142.762 94.2298 142.762 87.6911C142.762 79.5179 146.024 72.9793 150.917 68.0753C152.548 66.4407 152.548 66.4407 152.548 66.4407C154.179 64.806 157.44 63.1714 160.702 61.5367V56.6328ZM172.119 64.806C183.536 64.806 193.321 74.6139 193.321 87.6911C193.321 99.1337 183.536 108.942 172.119 108.942C159.071 108.942 149.286 99.1337 149.286 87.6911C149.286 74.6139 159.071 64.806 172.119 64.806ZM191.69 213.559V125.288H152.548V213.559H191.69Z" fill="#6CBFFF"/>
<path d="M230.522 139.748L224.911 119.228H227.436L231.724 135.941H231.925L236.293 119.228H239.099L243.468 135.941H243.668L247.957 119.228H250.482L244.87 139.748H242.305L237.776 123.396H237.616L233.087 139.748H230.522ZM254.78 145.52C254.379 145.52 254.022 145.486 253.708 145.42C253.394 145.36 253.177 145.299 253.057 145.239L253.658 143.155C254.232 143.302 254.74 143.356 255.181 143.315C255.622 143.275 256.013 143.078 256.353 142.724C256.701 142.377 257.018 141.812 257.305 141.031L257.746 139.829L252.055 124.358H254.62L258.868 136.622H259.029L263.277 124.358H265.842L259.309 141.993C259.015 142.788 258.651 143.446 258.217 143.967C257.783 144.494 257.278 144.885 256.704 145.139C256.136 145.393 255.495 145.52 254.78 145.52ZM274.224 140.069C272.941 140.069 271.809 139.745 270.827 139.097C269.845 138.442 269.077 137.521 268.522 136.332C267.968 135.136 267.691 133.723 267.691 132.093C267.691 130.477 267.968 129.074 268.522 127.885C269.077 126.696 269.848 125.777 270.837 125.129C271.826 124.481 272.968 124.157 274.264 124.157C275.266 124.157 276.057 124.324 276.639 124.658C277.226 124.986 277.674 125.36 277.981 125.781C278.295 126.195 278.539 126.535 278.713 126.803H278.913V119.228H281.278V139.748H278.993V137.384H278.713C278.539 137.664 278.292 138.018 277.971 138.446C277.651 138.867 277.193 139.244 276.598 139.578C276.004 139.905 275.212 140.069 274.224 140.069ZM274.544 137.945C275.493 137.945 276.295 137.698 276.949 137.203C277.604 136.702 278.101 136.011 278.442 135.129C278.783 134.241 278.953 133.215 278.953 132.053C278.953 130.904 278.786 129.899 278.452 129.037C278.118 128.169 277.624 127.494 276.969 127.013C276.315 126.525 275.506 126.282 274.544 126.282C273.542 126.282 272.707 126.539 272.039 127.053C271.378 127.561 270.88 128.252 270.546 129.127C270.219 129.996 270.055 130.971 270.055 132.053C270.055 133.149 270.222 134.144 270.556 135.039C270.897 135.927 271.398 136.636 272.059 137.163C272.727 137.684 273.556 137.945 274.544 137.945ZM285.496 139.748V137.945L294.234 126.722V126.562H285.777V124.358H297.28V126.242L288.783 137.384V137.544H297.56V139.748H285.496ZM301.202 139.748V124.358H303.567V139.748H301.202ZM302.405 121.793C301.944 121.793 301.546 121.636 301.212 121.322C300.885 121.008 300.721 120.63 300.721 120.19C300.721 119.749 300.885 119.371 301.212 119.057C301.546 118.743 301.944 118.586 302.405 118.586C302.866 118.586 303.26 118.743 303.587 119.057C303.921 119.371 304.088 119.749 304.088 120.19C304.088 120.63 303.921 121.008 303.587 121.322C303.26 121.636 302.866 121.793 302.405 121.793ZM312.427 140.109C311.452 140.109 310.567 139.925 309.772 139.558C308.977 139.184 308.346 138.646 307.878 137.945C307.411 137.237 307.177 136.382 307.177 135.38C307.177 134.498 307.35 133.783 307.698 133.235C308.045 132.681 308.509 132.247 309.091 131.933C309.672 131.619 310.313 131.385 311.014 131.231C311.722 131.071 312.434 130.944 313.149 130.851C314.084 130.73 314.842 130.64 315.423 130.58C316.011 130.513 316.439 130.403 316.706 130.25C316.98 130.096 317.117 129.829 317.117 129.448V129.368C317.117 128.379 316.846 127.611 316.305 127.063C315.771 126.515 314.959 126.242 313.87 126.242C312.741 126.242 311.856 126.489 311.215 126.983C310.574 127.477 310.123 128.005 309.862 128.566L307.618 127.765C308.018 126.829 308.553 126.101 309.221 125.58C309.896 125.053 310.63 124.685 311.425 124.478C312.227 124.264 313.015 124.157 313.79 124.157C314.284 124.157 314.852 124.218 315.493 124.338C316.141 124.451 316.766 124.688 317.367 125.049C317.975 125.41 318.479 125.954 318.88 126.682C319.281 127.411 319.481 128.386 319.481 129.608V139.748H317.117V137.664H316.996C316.836 137.998 316.569 138.356 316.195 138.736C315.821 139.117 315.323 139.441 314.702 139.708C314.081 139.976 313.322 140.109 312.427 140.109ZM312.788 137.985C313.723 137.985 314.511 137.801 315.153 137.434C315.801 137.066 316.288 136.592 316.616 136.011C316.95 135.43 317.117 134.819 317.117 134.177V132.013C317.016 132.133 316.796 132.243 316.455 132.344C316.121 132.437 315.734 132.521 315.293 132.594C314.859 132.661 314.435 132.721 314.02 132.775C313.613 132.821 313.282 132.861 313.028 132.895C312.414 132.975 311.839 133.105 311.305 133.286C310.777 133.459 310.35 133.723 310.022 134.077C309.702 134.424 309.541 134.899 309.541 135.5C309.541 136.322 309.845 136.943 310.453 137.364C311.068 137.778 311.846 137.985 312.788 137.985ZM328.366 126.923V128.686L321.593 131.251V129.488L328.366 126.923ZM326.162 119.228V139.748H323.797V119.228H326.162Z" fill="white"/>
<path d="M229.279 173.171V193.692H226.794V173.171H229.279ZM236.306 184.433V193.692H233.941V178.301H236.226V180.706H236.426C236.787 179.925 237.335 179.297 238.069 178.822C238.804 178.341 239.753 178.101 240.915 178.101C241.957 178.101 242.869 178.315 243.65 178.742C244.432 179.163 245.04 179.804 245.474 180.666C245.908 181.521 246.125 182.603 246.125 183.912V193.692H243.761V184.073C243.761 182.864 243.447 181.922 242.819 181.247C242.191 180.566 241.329 180.225 240.234 180.225C239.479 180.225 238.804 180.389 238.21 180.716C237.622 181.043 237.158 181.521 236.817 182.149C236.476 182.777 236.306 183.538 236.306 184.433ZM257.3 178.301V180.305H249.004V178.301H257.3ZM251.489 193.692V176.177C251.489 175.295 251.696 174.561 252.11 173.973C252.524 173.385 253.062 172.944 253.723 172.65C254.384 172.356 255.082 172.209 255.817 172.209C256.398 172.209 256.873 172.256 257.24 172.349C257.607 172.443 257.881 172.53 258.062 172.61L257.38 174.654C257.26 174.614 257.093 174.564 256.879 174.504C256.672 174.444 256.398 174.414 256.058 174.414C255.276 174.414 254.712 174.611 254.364 175.005C254.024 175.399 253.853 175.977 253.853 176.738V193.692H251.489ZM266.233 194.013C264.843 194.013 263.624 193.682 262.576 193.021C261.534 192.359 260.719 191.434 260.131 190.245C259.55 189.056 259.259 187.667 259.259 186.077C259.259 184.474 259.55 183.074 260.131 181.878C260.719 180.683 261.534 179.754 262.576 179.093C263.624 178.432 264.843 178.101 266.233 178.101C267.622 178.101 268.838 178.432 269.88 179.093C270.929 179.754 271.744 180.683 272.325 181.878C272.913 183.074 273.207 184.474 273.207 186.077C273.207 187.667 272.913 189.056 272.325 190.245C271.744 191.434 270.929 192.359 269.88 193.021C268.838 193.682 267.622 194.013 266.233 194.013ZM266.233 191.888C267.288 191.888 268.157 191.618 268.838 191.077C269.519 190.536 270.024 189.824 270.351 188.942C270.678 188.061 270.842 187.105 270.842 186.077C270.842 185.048 270.678 184.089 270.351 183.201C270.024 182.313 269.519 181.595 268.838 181.047C268.157 180.499 267.288 180.225 266.233 180.225C265.177 180.225 264.309 180.499 263.628 181.047C262.946 181.595 262.442 182.313 262.115 183.201C261.787 184.089 261.624 185.048 261.624 186.077C261.624 187.105 261.787 188.061 262.115 188.942C262.442 189.824 262.946 190.536 263.628 191.077C264.309 191.618 265.177 191.888 266.233 191.888ZM276.816 193.692V178.301H279.101V180.626H279.261C279.542 179.864 280.05 179.247 280.784 178.772C281.519 178.298 282.347 178.061 283.269 178.061C283.443 178.061 283.66 178.064 283.921 178.071C284.181 178.078 284.378 178.088 284.512 178.101V180.506C284.432 180.486 284.248 180.456 283.961 180.415C283.68 180.369 283.383 180.345 283.069 180.345C282.321 180.345 281.653 180.502 281.065 180.816C280.484 181.124 280.023 181.551 279.682 182.099C279.348 182.64 279.181 183.258 279.181 183.953V193.692H276.816ZM287.315 193.692V178.301H289.599V180.706H289.8C290.12 179.884 290.638 179.247 291.353 178.792C292.068 178.331 292.926 178.101 293.928 178.101C294.943 178.101 295.788 178.331 296.463 178.792C297.144 179.247 297.675 179.884 298.056 180.706H298.216C298.611 179.911 299.202 179.28 299.99 178.812C300.778 178.338 301.723 178.101 302.826 178.101C304.202 178.101 305.327 178.532 306.202 179.393C307.077 180.248 307.515 181.581 307.515 183.391V193.692H305.15V183.391C305.15 182.256 304.84 181.444 304.218 180.957C303.597 180.469 302.866 180.225 302.024 180.225C300.942 180.225 300.104 180.552 299.509 181.207C298.915 181.855 298.617 182.677 298.617 183.672V193.692H296.212V183.151C296.212 182.276 295.929 181.571 295.361 181.037C294.793 180.496 294.062 180.225 293.166 180.225C292.552 180.225 291.977 180.389 291.443 180.716C290.915 181.043 290.488 181.498 290.16 182.079C289.84 182.653 289.679 183.318 289.679 184.073V193.692H287.315ZM316.368 194.053C315.392 194.053 314.507 193.869 313.712 193.502C312.917 193.127 312.286 192.59 311.819 191.888C311.351 191.18 311.117 190.325 311.117 189.323C311.117 188.441 311.291 187.727 311.638 187.179C311.986 186.625 312.45 186.19 313.031 185.876C313.612 185.562 314.253 185.329 314.955 185.175C315.663 185.015 316.374 184.888 317.089 184.794C318.024 184.674 318.782 184.584 319.364 184.524C319.951 184.457 320.379 184.347 320.646 184.193C320.92 184.039 321.057 183.772 321.057 183.391V183.311C321.057 182.323 320.786 181.554 320.245 181.007C319.711 180.459 318.899 180.185 317.81 180.185C316.682 180.185 315.796 180.432 315.155 180.927C314.514 181.421 314.063 181.949 313.802 182.51L311.558 181.708C311.959 180.773 312.493 180.045 313.161 179.524C313.836 178.996 314.571 178.629 315.366 178.422C316.167 178.208 316.955 178.101 317.73 178.101C318.225 178.101 318.792 178.161 319.434 178.281C320.082 178.395 320.706 178.632 321.307 178.993C321.915 179.353 322.42 179.898 322.82 180.626C323.221 181.354 323.422 182.329 323.422 183.552V193.692H321.057V191.608H320.937C320.776 191.942 320.509 192.299 320.135 192.68C319.761 193.061 319.263 193.385 318.642 193.652C318.021 193.919 317.263 194.053 316.368 194.053ZM316.728 191.928C317.663 191.928 318.452 191.745 319.093 191.377C319.741 191.01 320.229 190.536 320.556 189.954C320.89 189.373 321.057 188.762 321.057 188.121V185.957C320.957 186.077 320.736 186.187 320.396 186.287C320.062 186.381 319.674 186.464 319.233 186.538C318.799 186.604 318.375 186.665 317.961 186.718C317.553 186.765 317.223 186.805 316.969 186.838C316.354 186.918 315.78 187.049 315.245 187.229C314.718 187.403 314.29 187.667 313.963 188.021C313.642 188.368 313.482 188.842 313.482 189.443C313.482 190.265 313.786 190.886 314.394 191.307C315.008 191.721 315.786 191.928 316.728 191.928ZM334.431 178.301V180.305H326.455V178.301H334.431ZM328.78 174.614H331.144V189.283C331.144 189.951 331.241 190.452 331.435 190.786C331.635 191.113 331.889 191.334 332.197 191.447C332.51 191.554 332.841 191.608 333.189 191.608C333.449 191.608 333.663 191.594 333.83 191.568C333.997 191.534 334.13 191.508 334.231 191.488L334.712 193.612C334.551 193.672 334.327 193.732 334.04 193.792C333.753 193.859 333.389 193.892 332.948 193.892C332.28 193.892 331.625 193.749 330.984 193.461C330.35 193.174 329.822 192.737 329.401 192.149C328.987 191.561 328.78 190.82 328.78 189.924V174.614ZM339.511 199.463C339.11 199.463 338.753 199.43 338.439 199.363C338.125 199.303 337.908 199.243 337.788 199.183L338.389 197.099C338.963 197.246 339.471 197.299 339.912 197.259C340.353 197.219 340.744 197.022 341.084 196.668C341.432 196.32 341.749 195.756 342.036 194.974L342.477 193.772L336.786 178.301H339.351L343.599 190.566H343.76L348.008 178.301H350.573L344.04 195.936C343.746 196.731 343.382 197.389 342.948 197.91C342.514 198.438 342.009 198.829 341.435 199.083C340.867 199.336 340.226 199.463 339.511 199.463ZM355.899 188.081L355.859 185.155H356.34L363.073 178.301H365.999L358.824 185.556H358.624L355.899 188.081ZM353.694 193.692V173.171H356.059V193.692H353.694ZM363.474 193.692L357.462 186.077L359.145 184.433L366.48 193.692H363.474ZM369.042 193.692V178.301H371.407V193.692H369.042ZM370.245 175.736C369.784 175.736 369.386 175.579 369.052 175.265C368.725 174.951 368.561 174.574 368.561 174.133C368.561 173.692 368.725 173.315 369.052 173.001C369.386 172.687 369.784 172.53 370.245 172.53C370.706 172.53 371.1 172.687 371.427 173.001C371.761 173.315 371.928 173.692 371.928 174.133C371.928 174.574 371.761 174.951 371.427 175.265C371.1 175.579 370.706 175.736 370.245 175.736Z" fill="white"/>
</g>
<defs>
<linearGradient id="paint0_linear_11_54" x1="610.134" y1="-336.859" x2="655.727" y2="1199.44" gradientUnits="userSpaceOnUse">
<stop stop-color="#00C26B"/>
<stop offset="1" stop-color="#001FCA"/>
</linearGradient>
<clipPath id="clip0_11_54">
<rect width="1920" height="1080" fill="white"/>
</clipPath>
</defs>
</svg>
